<?xml version="1.0" standalone="no"?>
<svg xmlns="http://www.w3.org/2000/svg" viewBox="0 0 47.704 55.084" width="47.704" height="55.084"><polygon fill="none" stroke="#000000" stroke-width="3" points="46.204,14.521 46.204,40.563 23.852,53.584 1.5,40.563 1.5,14.521 23.852,1.5"></polygon><path fill="#000000" fill-rule="nonzero" d="M4.44 19.61L0 19.61L0 0.17L4.22 0.17Q6.38 0.17 7.64 0.83Q8.90 1.49 9.44 2.81Q9.98 4.13 9.98 6.10L9.98 6.10L9.98 13.25Q9.98 15.31 9.44 16.73Q8.90 18.14 7.69 18.88Q6.48 19.61 4.44 19.61L4.44 19.61ZM2.71 2.18L2.71 17.66L4.25 17.66Q5.74 17.66 6.36 17.09Q6.98 16.51 7.12 15.41Q7.25 14.30 7.25 12.74L7.25 12.74L7.25 6.43Q7.25 4.92 7.06 3.98Q6.86 3.05 6.22 2.62Q5.57 2.18 4.18 2.18L4.18 2.18L2.71 2.18ZM17.28 19.85L17.28 19.85Q15.46 19.85 14.36 19.07Q13.27 18.29 12.78 16.80Q12.29 15.31 12.29 13.22L12.29 13.22L12.29 6.72Q12.29 4.58 12.73 3.08Q13.18 1.58 14.32 0.79Q15.46 0 17.50 0L17.50 0Q19.32 0 20.44 0.61Q21.55 1.22 22.06 2.48Q22.56 3.74 22.56 5.66L22.56 5.66L22.56 6.38L20.02 6.38L20.02 5.78Q20.02 4.51 19.85 3.71Q19.68 2.90 19.16 2.51Q18.65 2.11 17.54 2.11L17.54 2.11Q16.34 2.11 15.80 2.66Q15.26 3.22 15.13 4.16Q15 5.11 15 6.31L15 6.31L15 13.51Q15 14.90 15.20 15.84Q15.41 16.78 15.98 17.23Q16.56 17.69 17.62 17.69L17.62 17.69Q18.67 17.69 19.25 17.18Q19.82 16.68 20.04 15.70Q20.26 14.71 20.26 13.25L20.26 13.25L20.26 11.90L17.78 11.90L17.78 9.98L22.70 9.98L22.70 19.61L21 19.61L20.74 17.38Q20.35 18.46 19.54 19.15Q18.72 19.85 17.28 19.85Z" transform="translate(12.5, 17.619)"></path></svg>